<svg xmlns="http://www.w3.org/2000/svg" viewBox="0 0 64 64">
  <!-- Envelope body -->
  <rect x="4" y="16" width="56" height="38" rx="6" fill="#e91e63"/>
  <!-- Envelope flap (top triangle) -->
  <path d="M4 22 L32 40 L60 22 L60 16 Q60 16 56 16 L32 34 L8 16 Q4 16 4 16 Z" fill="#f06292"/>
  <!-- Envelope bottom fold lines -->
  <path d="M4 54 L22 38" stroke="#f48fb1" stroke-width="1.5" stroke-linecap="round"/>
  <path d="M60 54 L42 38" stroke="#f48fb1" stroke-width="1.5" stroke-linecap="round"/>
  <!-- Heart on envelope -->
  <path d="M32 30 C32 30 25 23 25 19 C25 16.2 27.2 14 30 14 C31.2 14 32 15 32 15 C32 15 32.8 14 34 14 C36.8 14 39 16.2 39 19 C39 23 32 30 32 30 Z" fill="white" opacity="0.9"/>
</svg>
